PathFileType	4	(X/Y/Z)	/Users/niels/Desktop/University/Third Semester/Perception and Action/Exam/Gymnastics Motion Tracking/Code for Gym Tracking/Analyzed Data/Webcam_Backflip/id15_1_baseline_Sports2D/id15_1_baseline_Sports2D_px_person00.trc
DataRate	CameraRate	NumFrames	NumMarkers	Units	OrigDataRate	OrigDataStartFrame	OrigNumFrames
29.708737864077673	29.708737864077673	8	22	m	29.708737864077673	90	103
Frame#	Time	Hip			RHip			RKnee			RAnkle			RBigToe			RSmallToe			RHeel			LHip			LKnee			LAnkle			LBigToe			LSmallToe			LHeel			Neck			Head			Nose			RShoulder			RElbow			RWrist			LShoulder			LElbow			LWrist		
		X1	Y1	Z1	X2	Y2	Z2	X3	Y3	Z3	X4	Y4	Z4	X5	Y5	Z5	X6	Y6	Z6	X7	Y7	Z7	X8	Y8	Z8	X9	Y9	Z9	X10	Y10	Z10	X11	Y11	Z11	X12	Y12	Z12	X13	Y13	Z13	X14	Y14	Z14	X15	Y15	Z15	X16	Y16	Z16	X17	Y17	Z17	X18	Y18	Z18	X19	Y19	Z19	X20	Y20	Z20	X21	Y21	Z21	X22	Y22	Z22
90	3.0294117647058822	1.0067946837268702	-0.6121231626490526	0.0	0.9638729119541919	-0.6225409916844278	0.0	0.8660989510761071	-0.778325053259816	0.0	0.8220809439315115	-0.9379237581193927	0.0	0.7541982167854361	-0.9691994493342242	0.0	0.7529650712711469	-0.9591309760855818	0.0	0.8298380945045117	-0.9595378358923358	0.0	1.053085946733086	-0.6123318505905949	0.0	1.1679756145445874	-0.7777075171823634	0.0	1.3224339866650632	-0.9486796333821983	0.0	1.367625421367391	-0.9994853466474788	0.0	1.3917433528848908	-0.9849043376172769	0.0	1.3415006749447682	-0.9682378509294117	0.0	0.9993223737373523	-0.34237906603879503	0.0	0.9729913646753885	-0.23128850422862365	0.0	0.9752060408496922	-0.2918299883409716	0.0	0.9532798580989353	-0.39631444967930046	0.0	0.9276414960044159	-0.45966236672701005	0.0	0.8743260069577412	-0.44232872720634187	0.0	1.0701709184106518	-0.35717606352298714	0.0	1.151045609197908	-0.346514491504587	0.0	1.2292949231709491	-0.2988160299326563	0.0
91	3.0630718954248364	1.0064751444358457	-0.6116694040449534	0.0	0.9645509154596266	-0.6212256934384776	0.0	0.8638695887155443	-0.7757714273828463	0.0	0.8221607932011418	-0.9374896241930784	0.0	0.7532438668040132	-0.9703375143071579	0.0	0.7524608151787922	-0.9602397955130625	0.0	0.8302718732735526	-0.960916387814978	0.0	1.0517000716299405	-0.6116310373751456	0.0	1.16722065440394	-0.7784786752665962	0.0	1.3220832991408706	-0.9486579588913441	0.0	1.3686078640182042	-1.0008368257982263	0.0	1.3922439011035346	-0.9865393127842232	0.0	1.3415536241365993	-0.9691855305869707	0.0	0.9997214482690675	-0.34187164113923646	0.0	0.9718509426312314	-0.231844292361827	0.0	0.9746198347133486	-0.29131485751389946	0.0	0.9570704573014195	-0.39260501665240116	0.0	0.9398636124259596	-0.4562714540844397	0.0	0.8896056012017317	-0.4395838436603237	0.0	1.067420104435425	-0.3571448640614859	0.0	1.1417346110777709	-0.3401884894221895	0.0	1.2137129043450576	-0.28586354417320853	0.0
92	3.0967320261437905	1.0061985448146618	-0.611543764749494	0.0	0.9653663851853308	-0.6206634395991389	0.0	0.8614964427626716	-0.7731593115950582	0.0	0.8224257775316047	-0.9371907461567698	0.0	0.7524591621423966	-0.9710498980213214	0.0	0.7522153490082563	-0.9611950597523683	0.0	0.8310917948869891	-0.9621272939321689	0.0	1.0508056038377833	-0.6115935393421448	0.0	1.1664428002822511	-0.7785186610427778	0.0	1.3220394377296003	-0.9487123681790935	0.0	1.3701929144166236	-1.0021825335077115	0.0	1.3929283247146897	-0.988408901595272	0.0	1.3414470575789605	-0.9703885183258941	0.0	1.0000733227960596	-0.34208205714717954	0.0	0.9711446286877731	-0.23265398932835274	0.0	0.9737818861164953	-0.29106330353739057	0.0	0.9603649967192958	-0.38935246661924156	0.0	0.9515587642502485	-0.45493272300231624	0.0	0.9053528197931041	-0.44460383298374695	0.0	1.0645394970570303	-0.35793205899619235	0.0	1.1329367826651622	-0.333652018826371	0.0	1.1976015830421751	-0.27349585740872423	0.0
93	3.130392156862745	1.0059141592814884	-0.6116614868413351	0.0	0.9662225507880391	-0.620913759819694	0.0	0.859126125762186	-0.7707316241251155	0.0	0.8227715152550186	-0.9370083948220466	0.0	0.751779913436029	-0.9713537639689931	0.0	0.7521518653252063	-0.9618812392932917	0.0	0.8320999278793102	-0.9630493232761231	0.0	1.0503718433306977	-0.612156474577838	0.0	1.1658303848398262	-0.7783412080246721	0.0	1.32228656340923	-0.948756590617887	0.0	1.3719912779550987	-1.0032795874683311	0.0	1.3935497294399455	-0.9901480008856468	0.0	1.3412951264758506	-0.9714790994567829	0.0	1.0003188368698313	-0.34308851139591334	0.0	0.9708306555728027	-0.23379200811773998	0.0	0.972698425098698	-0.29135468636067186	0.0	0.9632140302522064	-0.3869139498986955	0.0	0.9626774347168561	-0.4564097382158574	0.0	0.9221726222303845	-0.4592064213115103	0.0	1.0617843299257568	-0.359128970711921	0.0	1.124701460169012	-0.32587549975437535	0.0	1.180507098204258	-0.2615170793993192	0.0
94	3.164052287581699	1.005692661448726	-0.6118596018287382	0.0	0.967156602552848	-0.6217035320549021	0.0	0.8570377344666829	-0.768599801258327	0.0	0.8230245766673739	-0.9369047150891036	0.0	0.7511298341859157	-0.9713313040031379	0.0	0.752185229572105	-0.9622431712889455	0.0	0.8330266358306926	-0.9637852135780006	0.0	1.0502559288740743	-0.6130407169806082	0.0	1.1654708177284392	-0.7783990156575356	0.0	1.3227555596038794	-0.9488203530445803	0.0	1.3736005040679087	-1.0039990396437917	0.0	1.3939768262978873	-0.9914752118776637	0.0	1.3413574258214305	-0.9723769299281095	0.0	1.0004665757264517	-0.3448128204091076	0.0	0.9705711360390639	-0.23527991840741735	0.0	0.9714542330442131	-0.292251916085531	0.0	0.9659114196687922	-0.3853474104449543	0.0	0.9734456733485491	-0.46108410714601933	0.0	0.9401977200743534	-0.4832100989843668	0.0	1.0592551603553035	-0.36034937342716006	0.0	1.1163807061544595	-0.31622639560047533	0.0	1.161830734594313	-0.24994336741054454	0.0
95	3.1977124183006533	1.005631934556545	-0.6120385772288213	0.0	0.9682595494506494	-0.6226570576395732	0.0	0.8554790252468703	-0.7667879566918026	0.0	0.823075835442329	-0.9368125832102374	0.0	0.7505011473984099	-0.9710371982058373	0.0	0.75226005422875	-0.9622647409350513	0.0	0.833624508856013	-0.9644218060928474	0.0	1.0502376507006825	-0.6139550807738219	0.0	1.1652801298452478	-0.7788667265864248	0.0	1.323342620133605	-0.9489977314152948	0.0	1.3748895649684014	-1.0044184202207163	0.0	1.3942790396485034	-0.9923762584752401	0.0	1.3418127224576406	-0.9732020877984418	0.0	1.0005716015989408	-0.3469532578281287	0.0	0.9698935464193293	-0.23691007699510344	0.0	0.9701135981685592	-0.29349672191363047	0.0	0.9687667599760116	-0.38443653756128443	0.0	0.9836954621109317	-0.46841916388891863	0.0	0.9583187778264791	-0.5125125981434235	0.0	1.0568026999621452	-0.36129301681516485	0.0	1.1067436537739843	-0.30475325623231364	0.0	1.1410872711047524	-0.23890045368939902	0.0
96	3.231372549019608	1.0057816146461398	-0.6122269563950752	0.0	0.96955115223102	-0.6235778047683149	0.0	0.8545422689672877	-0.7653120887639012	0.0	0.8229547517670551	-0.936669612297263	0.0	0.7498990423539355	-0.9705161936632046	0.0	0.7523100372487973	-0.9619552119382835	0.0	0.8337695125070125	-0.9648763810753087	0.0	1.050161148993132	-0.6147862421262487	0.0	1.1650737980527717	-0.779683098488182	0.0	1.3239081926500305	-0.9493093140255028	0.0	1.3759423512783622	-1.004648757399621	0.0	1.3946045379657273	-0.9929594741637696	0.0	1.3425804845960092	-0.9739608251076676	0.0	1.0006624588823518	-0.3490245298322541	0.0	0.9685562418821763	-0.23832416596039585	0.0	0.9686230718633714	-0.2946785839751301	0.0	0.9718455831278455	-0.38392186392472605	0.0	0.9925663266695959	-0.4769884896076819	0.0	0.9743493235026532	-0.5405149445513864	0.0	1.0541331055642138	-0.3617474029140728	0.0	1.0946249659280822	-0.2921983522074556	0.0	1.118035246049834	-0.22846176692515768	0.0
97	3.265032679738562	1.0060988254593635	-0.6125821210674794	0.0	0.9709244268051735	-0.6245305348079058	0.0	0.854162221989976	-0.7641949213874523	0.0	0.8227732718458582	-0.9364560706470253	0.0	0.7492990463738177	-0.9698392897108215	0.0	0.7522945257598608	-0.9613645142981053	0.0	0.8335202732111956	-0.9650086853053895	0.0	1.0500060211781097	-0.6156464730144886	0.0	1.1647530540185613	-0.7807296742382209	0.0	1.324344975443736	-0.9496872892781332	0.0	1.3767928113449686	-1.0047113121843116	0.0	1.3949883499357965	-0.9932787734802064	0.0	1.343442569631464	-0.9744539239055737	0.0	1.0007344455168332	-0.3505769505028462	0.0	0.9667316472396634	-0.2392624300495492	0.0	0.9668329955143365	-0.2955319128194006	0.0	0.9750270904612279	-0.38358783677286007	0.0	0.9989813492935058	-0.4853555500075472	0.0	0.9860618309153716	-0.5623753520935237	0.0	1.050993695230702	-0.3616353070433055	0.0	1.0795764528427922	-0.2799791840354774	0.0	1.0927853651730766	-0.21863675361726828	0.0
